<svg width="15" height="16" viewBox="0 0 15 16" fill="none" xmlns="http://www.w3.org/2000/svg">
<path d="M1 3.79999H2.4H13.6" stroke="#828282" stroke-width="2" stroke-linecap="round" stroke-linejoin="round"/>
<path d="M12.2 3.8V13.6C12.2 13.9713 12.0525 14.3274 11.79 14.5899C11.5274 14.8525 11.1713 15 10.8 15H3.80002C3.42872 15 3.07263 14.8525 2.81007 14.5899C2.54752 14.3274 2.40002 13.9713 2.40002 13.6V3.8M4.50002 3.8V2.4C4.50002 2.0287 4.64752 1.6726 4.91008 1.41005C5.17263 1.1475 5.52872 1 5.90002 1H8.70002C9.07133 1 9.42742 1.1475 9.68997 1.41005C9.95252 1.6726 10.1 2.0287 10.1 2.4V3.8" stroke="#828282" stroke-width="2" stroke-linecap="round" stroke-linejoin="round"/>
<path d="M5.90002 7.29999V11.5" stroke="#828282" stroke-width="2" stroke-linecap="round" stroke-linejoin="round"/>
<path d="M8.69995 7.29999V11.5" stroke="#828282" stroke-width="2" stroke-linecap="round" stroke-linejoin="round"/>
</svg>
